<?xml version="1.0" encoding="UTF-8"?>
<svg width="91px" height="36px" viewBox="0 0 91 36" version="1.1" xmlns="http://www.w3.org/2000/svg" xmlns:xlink="http://www.w3.org/1999/xlink">
    <title>logo-black</title>
    <g id="页面-1" stroke="none" stroke-width="1" fill="none" fill-rule="evenodd">
        <g id="画板" fill="#333333" fill-rule="nonzero">
            <g id="logo-black" transform="translate(-0.000000, 0.000000)">
                <g id="左图">
                    <g id="编组">
                        <rect id="矩形" fill-opacity="0" x="0" y="0" width="7.23584729" height="7.9377601"></rect>
                        <g>
                            <polygon id="路径" points="4.14855246 13.6359543 21.8763784 23.886738 17.817068 26.2456242 0.0180896183 15.9658971 0.0180896183 8.38031717 14.5211396 0.00723584729 14.5211396 4.70330076 4.14975843 10.7199078"></polygon>
                            <path d="M17.8484234,35.5135386 L17.8484234,30.8102378 L28.2198046,24.8093085 L28.2198046,22.035567 L10.4087664,11.7112189 L14.4584289,9.33906694 L32.3731809,19.7044182 L32.3731809,27.1151318 L17.8484234,35.5135386 Z M32.3707689,8.39117095 L32.3707689,16.6279771 C30.9175696,15.9043924 29.6356187,15.0782998 28.2704555,14.2944164 L28.2704555,10.7331735 L17.8484234,4.70330076 L17.8484234,0 L32.3707689,8.39117095 Z M0,27.1115139 L0,18.9832455 L4.08222386,21.3457496 L4.08222386,24.7538336 L14.5271695,30.8102378 L14.5271695,35.5135386 L0,27.1115139 Z" id="形状"></path>
                        </g>
                    </g>
                </g>
                <g id="文字" transform="translate(41.760000, 4.603418)">
                    <g id="编组">
                        <g id="形状">
                            <path d="M13.5145316,21.127747 L11.2157142,21.127747 L11.2157142,2.67245285 C11.2157142,0.914805785 12.0159062,0.0359822586 13.6162902,0.0359822586 L13.6162902,0.0359822586 L19.9114418,0.0359822586 C20.929027,0.0359822586 21.5873737,0.139282568 21.8864821,0.345883188 L21.8864821,0.345883188 C22.5741229,0.811505477 22.9179434,1.53614944 22.9179434,2.51981508 L22.9179434,2.51981508 L22.9179434,4.24970981 C22.9179434,5.76375316 22.1270022,6.52077483 20.5451199,6.52077483 L20.5451199,6.52077483 L18.0751632,6.52077483 L18.0751632,4.47172839 L19.8235595,4.47172839 C20.34777,4.47172839 20.6098753,4.23120827 20.6098753,3.75016802 L20.6098753,3.75016802 L20.6098753,2.94535068 C20.6098753,2.52906585 20.3061415,2.32554882 19.698674,2.3347996 L19.698674,2.3347996 L14.5691199,2.3347996 C14.1219991,2.3347996 13.8367669,2.39338783 13.7134233,2.5105643 L13.7134233,2.5105643 C13.5808289,2.63390795 13.5145316,2.82354882 13.5145316,3.0794869 L13.5145316,3.0794869 L13.5145316,7.52910919 L20.1843397,7.52910919 C21.2358443,7.52910919 21.9234852,7.65245282 22.2472623,7.89914016 L22.2472623,7.89914016 C22.5617886,8.13966026 22.7190517,8.4958151 22.7190517,8.96760454 L22.7190517,8.96760454 C22.7190517,9.64599466 22.4245688,10.7514621 21.8356028,12.284007 L21.8356028,12.284007 C21.3884821,13.4434374 20.7347607,14.7477965 19.8744387,16.1970844 L19.8744387,16.1970844 C21.0184511,17.513778 22.0329526,18.387976 22.9179434,18.8196789 L22.9179434,18.8196789 L22.9179434,21.127747 C21.9311942,20.8132206 21.0292437,20.3244714 20.212092,19.6614993 L20.212092,19.6614993 C19.7218009,19.2667996 19.1698381,18.750298 18.5562035,18.1119946 L18.5562035,18.1119946 C17.0267422,19.8326386 15.5527854,20.8378894 14.1343335,21.127747 L14.1343335,21.127747 L14.1343335,18.8196789 C15.2197576,18.3386386 16.2188412,17.5184033 17.1315842,16.358973 L17.1315842,16.358973 C15.8056399,14.4286448 14.7248412,12.5491959 13.8891879,10.7206262 L13.8891879,10.7206262 L16.447027,10.7206262 C17.0606616,12.012651 17.7313427,13.2013755 18.4590703,14.2867996 L18.4590703,14.2867996 C19.2114666,12.7203352 19.7865564,11.2078336 20.1843397,9.74929493 L20.1843397,9.74929493 L13.5145316,9.74929493 L13.5145316,21.127747 Z M-0.000849192142,21.1554993 L-0.000849192142,21.1554993 L-0.000849192142,18.8428058 C0.356847402,18.7194622 0.601992913,18.5421556 0.734587337,18.3108863 L0.734587337,18.3108863 C0.873348948,18.079617 0.942729754,17.5985767 0.942729754,16.8677655 L0.942729754,16.8677655 L0.942729754,2.60769743 C0.942729754,0.917889379 1.73058734,0.0729853546 3.30630251,0.0729853546 L3.30630251,0.0729853546 L7.61253782,0.0729853546 C9.24375758,0.0729853546 10.0593675,0.917889379 10.0593675,2.60769743 L10.0593675,2.60769743 L10.0593675,18.8798089 C10.0593675,19.5581989 9.85276692,20.1055365 9.43956569,20.5218212 L9.43956569,20.5218212 C9.01094645,20.9596913 8.4774852,21.1786262 7.8391818,21.1786262 L7.8391818,21.1786262 L6.28505173,21.1786262 L6.28505173,18.8705581 L6.95573285,18.8705581 C7.49536135,18.8705581 7.76517559,18.6130782 7.76517559,18.0981185 L7.76517559,18.0981185 L7.76517559,14.7308368 L3.22767093,14.7308368 L3.22767093,16.8677655 C3.22767093,18.0950349 2.96710746,19.060199 2.44598053,19.7632578 L2.44598053,19.7632578 C1.86626536,20.5495736 1.05065545,21.0136541 -0.000849192142,21.1554993 Z M3.22767093,8.54669434 L3.22767093,12.4320194 L7.76517559,12.4320194 L7.76517559,8.54669434 L3.22767093,8.54669434 Z M3.22767093,3.10723922 L3.22767093,6.26175315 L7.76517559,6.26175315 L7.76517559,3.10723922 C7.76517559,2.6169482 7.51694645,2.3718027 7.02048827,2.3718027 L7.02048827,2.3718027 L4.09724369,2.3718027 C3.51752851,2.3718027 3.22767093,2.6169482 3.22767093,3.10723922 L3.22767093,3.10723922 Z M43.4269093,2.2977965 L26.3592313,2.28392034 L26.3592313,-0.00102083736 L43.8108165,-0.00102083736 C45.0781725,-0.00102083736 46.0510456,0.318130865 46.7294356,0.95643427 L46.7294356,0.95643427 C47.2937329,1.4775612 47.5758814,2.15286771 47.5758814,2.98235377 L47.5758814,2.98235377 C47.5758814,3.46956121 47.4556214,3.89201322 47.2151012,4.24970981 L47.2151012,4.24970981 C46.8759062,4.74616801 46.4827483,5.13470053 46.0356276,5.41530734 L46.0356276,5.41530734 L41.128092,8.54669434 C40.690222,8.82730116 40.471287,9.23741878 40.471287,9.77704726 L40.471287,9.77704726 L40.471287,16.6827501 C40.471287,19.5905767 39.2208908,21.04449 36.7200982,21.04449 L36.7200982,21.04449 L30.8412313,21.04449 L30.8412313,18.7086696 L36.2714356,18.7086696 C36.8357329,18.7086696 37.1965131,18.6840009 37.3537762,18.6346634 L37.3537762,18.6346634 C37.6683025,18.5329048 37.8795285,18.3293878 37.9874542,18.0241123 L37.9874542,18.0241123 C38.0522097,17.8575983 38.0845873,17.5214869 38.0845873,17.0157779 L38.0845873,17.0157779 L38.0845873,10.1008243 L38.0614604,9.19424851 C38.0614604,8.58678106 38.1647607,8.1319513 38.3713613,7.82975938 C38.5779619,7.52756738 39.045126,7.15291105 39.7728536,6.70579031 L39.7728536,6.70579031 L44.0605873,4.08782127 C44.6156338,3.74862622 44.893157,3.35855192 44.893157,2.91759836 L44.893157,2.91759836 C44.893157,2.50439712 44.4044078,2.2977965 43.4269093,2.2977965 L43.4269093,2.2977965 Z"></path>
                        </g>
                    </g>
                    <g id="编组" transform="translate(2.312693, 24.417418)">
                        <rect id="矩形" x="0" y="1.75302166" width="17.1601857" height="1"></rect>
                        <rect id="矩形" x="25.7911582" y="1.75302166" width="17.1601857" height="1"></rect>
                        <g id="形状" transform="translate(18.547802, 0.000000)">
                            <g id="编组">
                                <path d="M2.49250542,2.16843924 L0.540592105,2.16843924 L0.540592105,3.96771479 L-0.000578173375,3.96771479 L-0.000578173375,-0.000867260059 L2.75152709,-0.000867260059 L2.75152709,0.457046052 L0.540592105,0.457046052 L0.540592105,1.69202438 L2.49250542,1.69202438 L2.49250542,2.16843924 Z M3.29732276,-0.000867260059 L3.83849304,-0.000867260059 L3.83849304,3.49129992 L5.85516177,3.49129992 L5.85516177,3.96771479 L3.29732276,3.96771479 L3.29732276,-0.000867260059 Z" id="形状"></path>
                            </g>
                        </g>
                    </g>
                </g>
            </g>
        </g>
    </g>
</svg>